# xmcd
# 
# Track frame offsets:
#     182
#     13977
#     25565
#     40052
#     54740
#     68437
#     85735
#     97685
#     114622
#     132630
#     146392
#     165540
#     176502
#     191792
#     205247
#     221487
#     238527
#     255402
#     271152
#     285172
#     297710
#     312192
# 
# Disc length: 4392
# 
# Revision: 11
# Processed by: cddbd v1.5.2PL0 Copyright (c) Steve Scherf et al.
# Submitted via: fre:ac v1.1beta1pre4
# 
DISCID=34112616
DTITLE=Various Artist - Contemporary Country Vol. 1 The Mid-'80s
DYEAR=1991
DGENRE=Oldies
TTITLE0=Dwight Yoakam - Guitars Cadillacs
TTITLE1=Steve Earle - Guitar Town
TTITLE2=The Judds - Mama He's Crazy
TTITLE3=George Strait - Does Fort Worth Ever Cross Your Mind
TTITLE4=Johnny Cash Waylon Jennings Kris Kristofferson And Willie Nelson - Highwayman
TTITLE5=Anne Murray And Dave Loggins - Nobody Loves Me Like You Do
TTITLE6=Vern Gosdin - I Can Tell By The Way You Dance (You're Gonna Love Me Tonight)
TTITLE7=Kenny Rogers - Morning Desire
TTITLE8=Statler Brothers - Too Much On My Heart
TTITLE9=Merle Haggard - That's The Way Love Goes
TTITLE10=Ronnie Milsap - Lost In The Fifties Tonight (In The Still Of The Night)
TTITLE11=Hank Williams Jr. - Mind Your Own Business
TTITLE12=Rosanne Cash - Never Be You
TTITLE13=Mel McDaniel - Baby's Got Her Blue Jeans On
TTITLE14=Dan Seals - Bop
TTITLE15=Kenny Rogers And Dolly Parton - Real Love
TTITLE16=Alabama - Roll On (Eighteen Wheeler)
TTITLE17=Nitty Gritty Dirt Band - Modern Day Romance
TTITLE18=Randy Travis - On The Other Hand
TTITLE19=Forester Sisters - Mama's Never Seen Those Eyes
TTITLE20=Lee Greenwood - Dixie Road
TTITLE21=Ricky Skaggs - Country Boy
EXTD=
EXTT0=
EXTT1=
EXTT2=
EXTT3=
EXTT4=
EXTT5=
EXTT6=
EXTT7=
EXTT8=
EXTT9=
EXTT10=
EXTT11=
EXTT12=
EXTT13=
EXTT14=
EXTT15=
EXTT16=
EXTT17=
EXTT18=
EXTT19=
EXTT20=
EXTT21=
PLAYORDER=
